<svg xmlns="http://www.w3.org/2000/svg" viewBox="0 0 160 140">
  <linearGradient id="a" gradientUnits="userSpaceOnUse" x1="35.407" y1="160.337" x2="111.16" y2="29.13" gradientTransform="matrix(1 0 0 -1 0 143)">
    <stop offset="0" stop-color="#da7902">
      <animate attributeName="stop-color" values="#da7902; #862426; #010d34; #496a82; #010d0e; #586d61; #da7902;" dur="15s" repeatCount="indefinite"/>
    </stop>
    <stop offset="1" stop-color="#862426">
      <animate attributeName="stop-color" values="#862426; #da7902; #496a82; #010d34; #586d61; #010d0e; #862426;" dur="15s" repeatCount="indefinite"/>
    </stop>
  </linearGradient>
  <path fill="url(#a)" d="M153.9 7.5l-.2 107.8-23.4 6.2-42.8 11.1.2-21.4 45.1-11.8 3.6-1 .1-3.8.3-11.5.1-6.6-6.4 1.7-47.6 12.5L31.5 78l-6.2-1.5v43.2L6.1 115V7.7l22.7 5.6 52.7 12.5 1.2.3 1.2-.3 70-18.3m-71 40.3L31.5 35.1l-6.2-1.5v21.8l3.8.9 52.4 12.8 1.2.3 1.2-.3L133 56.3l3.7-1V33.4l-6.3 1.7-47.5 12.7m76-46.8L82.7 20.9 30 8.4 1.1 1.2v117.6l29.2 7.2V82.8l52.7 13L131.8 83l-.3 11.5-48.8 12.8-.3 31.7 49.1-12.8 27.1-7.2.3-118zm-76 52l48.8-13v11.5L82.6 64.3 30.2 51.5V40l52.7 13z"/>
</svg>
