<?xml version="1.0" encoding="utf-8"?>
<!-- Generator: Adobe Illustrator 19.0.0, SVG Export Plug-In . SVG Version: 6.00 Build 0)  -->
<svg version="1.1" id="Layer_1" xmlns="http://www.w3.org/2000/svg" xmlns:xlink="http://www.w3.org/1999/xlink" x="0px" y="0px"
	 viewBox="-54 424.9 542 288.1" enable-background="new -54 424.9 542 288.1" xml:space="preserve">
<path fill="#FFFFFF" stroke="#CCCCCC" stroke-miterlimit="10" d="M408.7,424.9H26.4c-5.3,0-9.6,4.3-9.6,9.6v254.7h401.5V434.5
	C418.3,429.2,414,424.9,408.7,424.9z M400.9,676.8H34.7V441.5h366.2V676.8z"/>
<path fill="#808184" d="M218.9,434.8c0,0.9-0.8,1.7-1.7,1.7c-0.9,0-1.7-0.8-1.7-1.7s0.8-1.7,1.7-1.7S218.9,433.9,218.9,434.8z"/>
<path id="XMLID_28_" fill="#FFFFFF" stroke="#B3B3B3" stroke-miterlimit="10" d="M253.6,694.1v3.2c0,2.2-1.8,4-4,4h-65
	c-2.2,0-4-1.8-4-4v-3.2H-51v0c0,8.3,6.7,15,15,15h506.4c8.3,0,15-6.7,15-15v0H253.6z"/>
</svg>
