<?xml version="1.0" encoding="utf-8"?>
<!-- Generator: Adobe Illustrator 19.0.0, SVG Export Plug-In . SVG Version: 6.00 Build 0)  -->
<svg version="1.1" id="Layer_1" xmlns="http://www.w3.org/2000/svg" xmlns:xlink="http://www.w3.org/1999/xlink" x="0px" y="0px"
	 viewBox="0 0 335.3 699.5" enable-background="new 0 0 335.3 699.5" xml:space="preserve">
<path id="XMLID_41_" fill="#FFFFFF" stroke="#D0D2D3" stroke-width="3" stroke-miterlimit="10" d="M332.6,650.7
	c0,25.7-20.8,46.5-46.5,46.5h-237c-25.7,0-46.5-20.8-46.5-46.5V48.8c0-25.7,20.8-46.5,46.5-46.5h237c25.7,0,46.5,20.8,46.5,46.5
	V650.7z"/>
<g id="XMLID_37_">
	<path id="XMLID_45_" fill="#F1F1F2" d="M320.8,613.7c0,1.7-1.3,3-3,3h-302c-1.7,0-3-1.3-3-3v-537c0-1.7,1.3-3,3-3h302
		c1.7,0,3,1.3,3,3V613.7z"/>
	<path id="XMLID_44_" fill="none" stroke="#DBDBDB" stroke-width="2" stroke-miterlimit="10" d="M320.8,613.7c0,1.7-1.3,3-3,3h-302
		c-1.7,0-3-1.3-3-3v-537c0-1.7,1.3-3,3-3h302c1.7,0,3,1.3,3,3V613.7z"/>
</g>
<circle id="XMLID_33_" fill="#F1F1F2" stroke="#DBDBDB" stroke-width="1.5" stroke-miterlimit="10" cx="111.6" cy="39.7" r="5.9"/>
<circle id="XMLID_32_" fill="#F1F1F2" stroke="#DBDBDB" stroke-width="1.5" stroke-miterlimit="10" cx="166.8" cy="16.1" r="3.6"/>
<circle id="XMLID_31_" fill="#B3B3B3" cx="166.8" cy="657.8" r="27"/>
<circle id="XMLID_30_" fill="#FFFFFF" cx="166.8" cy="657.8" r="23.6"/>
<path id="XMLID_3_" fill="#E5E5E5" stroke="#DBDBDB" stroke-width="2" stroke-miterlimit="10" d="M194.8,41.1c0,1.5-1.2,2.7-2.7,2.7
	h-48.7c-1.5,0-2.7-1.2-2.7-2.7v-0.7c0-1.5,1.2-2.7,2.7-2.7h48.7c1.5,0,2.7,1.2,2.7,2.7V41.1z"/>
</svg>
