<svg xmlns="http://www.w3.org/2000/svg" viewBox="-54 424.9 542 288.1"><path fill="#FFF" stroke="#CCC" stroke-miterlimit="10" d="M408.7 424.9H26.4c-5.3 0-9.6 4.3-9.6 9.6v254.7h401.5V434.5c0-5.3-4.3-9.6-9.6-9.6zm-7.8 251.9H34.7V441.5h366.2v235.3z"/><path fill="#808184" d="M218.9 434.8c0 .9-.8 1.7-1.7 1.7-.9 0-1.7-.8-1.7-1.7s.8-1.7 1.7-1.7 1.7.8 1.7 1.7z"/><path fill="#FFF" stroke="#B3B3B3" stroke-miterlimit="10" d="M253.6 694.1v3.2c0 2.2-1.8 4-4 4h-65c-2.2 0-4-1.8-4-4v-3.2H-51c0 8.3 6.7 15 15 15h506.4c8.3 0 15-6.7 15-15H253.6z"/></svg>