<svg xmlns="http://www.w3.org/2000/svg" viewBox="0 0 335.3 699.5"><path fill="#FFF" stroke="#D0D2D3" stroke-width="3" stroke-miterlimit="10" d="M332.6 650.7c0 25.7-20.8 46.5-46.5 46.5h-237c-25.7 0-46.5-20.8-46.5-46.5V48.8c0-25.7 20.8-46.5 46.5-46.5h237c25.7 0 46.5 20.8 46.5 46.5v601.9z"/><path fill="#F1F1F2" d="M320.8 613.7c0 1.7-1.3 3-3 3h-302c-1.7 0-3-1.3-3-3v-537c0-1.7 1.3-3 3-3h302c1.7 0 3 1.3 3 3v537z"/><path fill="none" stroke="#DBDBDB" stroke-width="2" stroke-miterlimit="10" d="M320.8 613.7c0 1.7-1.3 3-3 3h-302c-1.7 0-3-1.3-3-3v-537c0-1.7 1.3-3 3-3h302c1.7 0 3 1.3 3 3v537z"/><circle fill="#F1F1F2" stroke="#DBDBDB" stroke-width="1.5" stroke-miterlimit="10" cx="111.6" cy="39.7" r="5.9"/><circle fill="#F1F1F2" stroke="#DBDBDB" stroke-width="1.5" stroke-miterlimit="10" cx="166.8" cy="16.1" r="3.6"/><circle fill="#B3B3B3" cx="166.8" cy="657.8" r="27"/><circle fill="#FFF" cx="166.8" cy="657.8" r="23.6"/><path fill="#E5E5E5" stroke="#DBDBDB" stroke-width="2" stroke-miterlimit="10" d="M194.8 41.1c0 1.5-1.2 2.7-2.7 2.7h-48.7c-1.5 0-2.7-1.2-2.7-2.7v-.7c0-1.5 1.2-2.7 2.7-2.7h48.7c1.5 0 2.7 1.2 2.7 2.7v.7z"/></svg>